HIERARCHY
ROOT Hips
{
	OFFSET 0.00000 0.00000 0.00000
	CHANNELS 6 Xposition Yposition Zposition Zrotation Yrotation Xrotation 
	JOINT LHipJoint
	{
		OFFSET 0 0 0
		CHANNELS 3 Zrotation Yrotation Xrotation
		JOINT LeftHip
		{
			OFFSET 1.62964 -1.40469 0.78906
			CHANNELS 3 Zrotation Yrotation Xrotation
			JOINT LeftKnee
			{
				OFFSET 2.29640 -6.30932 0.00000
				CHANNELS 3 Zrotation Yrotation Xrotation
				JOINT LeftAnkle
				{
					OFFSET 2.29451 -6.30412 0.00000
					CHANNELS 3 Zrotation Yrotation Xrotation
					JOINT LeftToe
					{
						OFFSET 0.03611 -0.09921 1.56387
						CHANNELS 3 Zrotation Yrotation Xrotation
						End Site
						{
							OFFSET 0.00000 -0.00000 0.80291
						}
					}
				}
			}
		}
	}
	JOINT RHipJoint
	{
		OFFSET 0 0 0
		CHANNELS 3 Zrotation Yrotation Xrotation
		JOINT RightHip
		{
			OFFSET -1.73712 -1.40469 0.78906
			CHANNELS 3 Zrotation Yrotation Xrotation
			JOINT RightKnee
			{
				OFFSET -2.28137 -6.26801 0.00000
				CHANNELS 3 Zrotation Yrotation Xrotation
				JOINT RightAnkle
				{
					OFFSET -2.28681 -6.28298 0.00000
					CHANNELS 3 Zrotation Yrotation Xrotation
					JOINT RightToe
					{
						OFFSET -0.15927 -0.43759 1.61103
						CHANNELS 3 Zrotation Yrotation Xrotation
						End Site
						{
							OFFSET -0.00000 -0.00000 0.84630
						}
					}
				}
			}
		}
	}
	JOINT lowerback
	{
		OFFSET 0 0 0
		CHANNELS 3 Zrotation Yrotation Xrotation
		JOINT Chest
		{
			OFFSET -0.04227 2.04338 -0.00225
			CHANNELS 3 Zrotation Yrotation Xrotation
			JOINT Chest2
			{
				OFFSET -0.02148 2.04482 -0.04273
				CHANNELS 3 Zrotation Yrotation Xrotation
				JOINT lowerneck
				{
					OFFSET 0 0 0
					CHANNELS 3 Zrotation Yrotation Xrotation
					JOINT Neck
					{
						OFFSET 0.09180 1.44629 0.19359
						CHANNELS 3 Zrotation Yrotation Xrotation
						JOINT Head
						{
							OFFSET 0.00887 1.40645 0.14750
							CHANNELS 3 Zrotation Yrotation Xrotation
							End Site
							{
								OFFSET -0.00669 1.50671 0.03707
							}
						}
					}
				}
				JOINT LeftCollar
				{
					OFFSET 0 0 0
					CHANNELS 3 Zrotation Yrotation Xrotation
					JOINT LeftShoulder
					{
						OFFSET 2.17674 1.86763 -0.06520
CHANNELS 3 Zrotation Xrotation Yrotation
						JOINT LeftElbow
						{
OFFSET 0 -4.657760 0.000000
CHANNELS 3 Zrotation Xrotation Yrotation
							JOINT LeftWrist
							{
OFFSET 0 -3.555390 0.000000
CHANNELS 3 Zrotation Xrotation Yrotation
								JOINT lhand
								{
									OFFSET 0 0 0
CHANNELS 3 Zrotation Xrotation Yrotation
									JOINT LFingers
									{
OFFSET 0 -0.707260 0.000000
CHANNELS 3 Zrotation Xrotation Yrotation
										End Site
										{
OFFSET 0 -0.570220 0.000000
										}
									}
								}
								JOINT LThumb
								{
OFFSET 0 0.000000 0.000000
CHANNELS 3 Zrotation Xrotation Yrotation
									End Site
									{
OFFSET 0 -0.578920 0.578920
									}
								}
							}
						}
					}
				}
				JOINT RightCollar
				{
					OFFSET 0 0 0
					CHANNELS 3 Zrotation Yrotation Xrotation
					JOINT RightShoulder
					{
						OFFSET -2.80694 1.55459 -0.32496
CHANNELS 3 Zrotation Xrotation Yrotation
						JOINT RightElbow
						{
OFFSET 0 -4.719250 -0.000000
CHANNELS 3 Zrotation Xrotation Yrotation
							JOINT RightWrist
							{
OFFSET 0 -3.569900 0.000000
CHANNELS 3 Zrotation Xrotation Yrotation
								JOINT rhand
								{
									OFFSET 0 0 0
CHANNELS 3 Zrotation Xrotation Yrotation
									JOINT RFingers
									{
OFFSET 0 -0.507760 0.000000
CHANNELS 3 Zrotation Xrotation Yrotation
										End Site
										{
OFFSET 0 -0.409370 0.000000
										}
									}
								}
								JOINT RThumb
								{
OFFSET 0 0.000000 0.000000
CHANNELS 3 Zrotation Xrotation Yrotation
									End Site
									{
OFFSET 0 -0.415620 0.415620
									}
								}
							}
						}
					}
				}
			}
		}
	}
}
MOTION
Frames: 9
Frame Time: 0.008333333333333333
9.740409 22.668198 16.950181 177.155753 2.598532 -146.716387 0.000000 0.000000 0.000000 -19.431414 -4.265792 -27.221584 8.544899 16.505732 54.502542 2.421408 19.990660 29.406504 6.653179 -15.032623 -47.549983 0.000000 0.000000 0.000000 18.875258 4.173737 -26.770382 -11.249875 -18.055076 63.590225 -0.180207 -17.308619 13.828460 -1.586390 7.944632 -22.546343 -4.879465 -3.862109 -33.426355 -0.172856 -1.565333 -4.698752 1.945228 -0.206235 12.046040 -2.142023 -5.592250 3.704183 3.816457 -7.466282 3.641829 1.559871 -3.687260 0.747228 0.000000 0.000000 0.000000 15.539642 -6.236963 -47.378733 26.151801 -37.356422 8.980376 30.281325 1.560799 13.582356 0.000000 0.000000 0.000000 -7.125000 0.000000 0.000000 1.962994 14.356149 1.415618 0.000000 0.000000 0.000000 -3.575595 -5.711407 8.096173 -9.231310 -15.527832 -1.261761 -16.397107 48.986933 56.363641 0.000000 0.000000 0.000000 7.125000 0.000000 0.000000 80.612879 77.939645 -68.243389
9.752515 22.830323 16.689907 177.199361 2.480722 -146.842733 0.000000 0.000000 0.000000 -19.160511 -4.691047 -27.597855 8.544811 16.505709 54.502065 2.392059 19.689332 29.177034 6.989709 -15.323266 -48.835443 0.000000 0.000000 0.000000 18.950246 4.299282 -28.006512 -11.680170 -18.251814 64.971116 0.036682 -18.127927 12.407035 -1.275680 7.156889 -20.181585 -4.953017 -3.822094 -33.267372 -0.074714 -1.560219 -4.542902 2.089791 -0.233538 12.165931 -2.321650 -5.593635 2.588161 4.238044 -7.470758 5.589516 1.666779 -3.632732 1.579001 0.000000 0.000000 0.000000 14.076488 -5.859736 -46.067522 23.678808 -34.817699 7.524468 28.541228 1.001996 14.173922 0.000000 0.000000 0.000000 -7.125000 0.000000 0.000000 0.725941 13.941067 0.529693 0.000000 0.000000 0.000000 -3.240477 -5.006105 1.994078 -7.800404 -13.227679 -0.907254 -12.640262 50.264547 56.954535 0.000000 0.000000 0.000000 7.125000 0.000000 0.000000 82.810566 76.566316 -68.919608
9.768145 22.963529 16.435767 177.269487 2.333432 -146.832937 0.000000 0.000000 0.000000 -18.778920 -5.061998 -28.324258 8.639564 16.570070 54.835055 2.333344 19.729567 28.880605 6.987138 -15.320901 -48.825442 0.000000 0.000000 0.000000 19.090703 4.576099 -29.426383 -12.147354 -18.451956 66.454756 0.192451 -18.511794 11.217210 -1.080615 6.606606 -18.555348 -4.108272 -3.512406 -35.258169 -0.726146 -1.453953 -2.920173 0.917098 -0.296116 14.788621 -2.375091 -5.375501 1.745367 5.820203 -7.229310 5.679388 2.169338 -3.468472 1.828429 0.000000 0.000000 0.000000 14.064774 -7.538316 -44.235544 21.341850 -32.219862 6.233637 27.830275 0.025217 14.264573 0.000000 0.000000 0.000000 -7.125000 0.000000 0.000000 0.236815 13.940372 0.172799 0.000000 0.000000 0.000000 -1.742121 -6.587762 -6.626767 -6.499479 -11.092392 -0.631968 -13.027951 57.693860 54.820882 0.000000 0.000000 0.000000 7.125000 0.000000 0.000000 73.826939 76.541030 -60.134303
9.768050 23.067099 16.160948 177.393257 2.081955 -146.999077 0.000000 0.000000 0.000000 -18.434240 -5.457571 -28.686496 8.682279 16.598832 54.984824 2.265196 20.117518 28.626340 6.787164 -15.149822 -48.064346 0.000000 0.000000 0.000000 19.163856 4.458198 -30.493970 -12.503633 -18.595179 67.576063 0.251383 -18.618786 10.722559 -0.981581 6.306372 -17.676077 -4.695007 -3.670138 -32.513283 0.149748 -1.567398 -4.666314 2.201898 -0.235168 11.723456 -3.515041 -6.892163 3.785620 5.832594 -9.148192 9.834919 2.367995 -4.290751 3.010368 0.000000 0.000000 0.000000 11.227097 -4.344328 -43.724098 19.445089 -29.961619 5.254592 27.820900 -0.167917 14.154572 0.000000 0.000000 0.000000 -7.125000 0.000000 0.000000 0.240621 14.064060 0.174984 0.000000 0.000000 0.000000 -2.866148 -2.184180 -11.777640 -6.063702 -10.368045 -0.551111 -8.298391 56.561869 54.468997 0.000000 0.000000 0.000000 7.125000 0.000000 0.000000 73.667349 74.707467 -57.934367
9.774472 23.156558 15.901211 177.321783 1.800715 -147.341362 0.000000 0.000000 0.000000 -18.224556 -5.743227 -29.008095 8.775436 16.660429 55.309293 2.237610 20.130334 28.484547 6.642028 -15.022854 -47.507136 0.000000 0.000000 0.000000 19.102665 4.260271 -31.470195 -12.838107 -18.722224 68.621158 0.326473 -18.693931 10.014795 -0.972925 6.276415 -17.589527 -4.563359 -3.566163 -32.213532 0.053748 -1.585934 -4.285597 2.018480 -0.296727 12.024153 -3.878899 -5.746616 2.830115 6.322765 -7.729173 7.863889 2.613306 -3.672385 2.476917 0.000000 0.000000 0.000000 10.210899 -4.137083 -42.184009 17.686371 -27.748172 4.405246 27.467766 -0.815647 14.134377 0.000000 0.000000 0.000000 -7.125000 0.000000 0.000000 0.003137 14.134663 0.002584 0.000000 0.000000 0.000000 -2.399136 -1.286776 -18.516155 -5.516230 -9.452691 -0.456776 -6.105727 59.607217 54.626660 0.000000 0.000000 0.000000 7.125000 0.000000 0.000000 74.967080 73.936320 -58.286868
9.789803 23.231378 15.669777 176.995633 1.459088 -147.575705 0.000000 0.000000 0.000000 -18.183284 -6.182970 -29.807585 9.039695 16.833159 56.227214 2.196129 19.697825 28.144813 6.604775 -14.989835 -47.363299 0.000000 0.000000 0.000000 18.812796 4.253471 -32.882246 -13.247064 -18.869073 69.890608 0.374041 -18.958483 9.676476 -0.886403 5.475782 -15.379182 -4.809401 -3.638087 -31.701615 -0.061681 -1.708859 -3.917170 1.977615 -0.417449 12.237315 -4.361853 -5.859200 3.150386 7.513192 -7.927173 7.998171 3.113246 -3.745157 2.569708 0.000000 0.000000 0.000000 9.316361 -3.980495 -40.430824 16.220652 -25.814502 3.744010 26.892833 -1.217279 13.907083 0.000000 0.000000 0.000000 -7.125000 0.000000 0.000000 -0.366792 14.464723 -0.265870 0.000000 0.000000 0.000000 -1.916882 -0.511029 -23.809618 -5.107294 -8.765238 -0.391949 -5.160983 62.617166 55.228710 0.000000 0.000000 0.000000 7.125000 0.000000 0.000000 77.353137 73.706616 -60.308839
9.786060 23.281740 15.400864 177.149379 1.717000 -148.234205 0.000000 0.000000 0.000000 -18.184161 -5.718640 -29.916129 9.167548 16.913777 56.666881 2.130070 19.237728 27.665578 6.595538 -14.981602 -47.327283 0.000000 0.000000 0.000000 18.582450 4.737274 -33.557320 -13.568207 -18.977320 70.880930 0.138558 -19.911978 12.832161 -0.068123 1.290680 -3.557121 -4.443954 -3.218727 -31.416988 -0.245077 -1.445863 -3.219828 1.676995 -0.378063 12.876465 -4.965425 -5.812214 3.255490 8.832548 -7.919068 7.626973 3.690866 -3.734796 2.530476 0.000000 0.000000 0.000000 8.568259 -3.749395 -38.992285 15.058593 -24.225287 3.251405 27.552718 -1.275854 13.131008 0.000000 0.000000 0.000000 -7.125000 0.000000 0.000000 0.147767 15.238236 0.103789 0.000000 0.000000 0.000000 -1.472577 0.223907 -24.045103 -4.819419 -8.279510 -0.349163 -6.055954 62.434570 55.866395 0.000000 0.000000 0.000000 7.125000 0.000000 0.000000 79.298977 74.128383 -62.684755
9.800128 23.329056 15.173972 177.018932 1.533826 -148.538693 0.000000 0.000000 0.000000 -18.034521 -5.856263 -30.766961 9.474770 17.102751 57.716538 2.072299 18.516255 27.154367 6.588263 -14.975056 -47.299088 0.000000 0.000000 0.000000 18.385071 5.027049 -34.947059 -13.884437 -19.078086 71.850732 0.115005 -18.397236 11.876647 -0.319628 3.581506 -9.907910 -4.472435 -3.155905 -30.788906 -0.383555 -1.482069 -2.787975 1.528548 -0.455072 13.095787 -5.439839 -4.991695 2.783668 9.575183 -6.849334 5.694266 4.061116 -3.272678 1.938414 0.000000 0.000000 0.000000 7.915696 -3.297492 -37.083202 14.218442 -23.044339 2.914182 27.497236 -1.452045 13.005754 0.000000 0.000000 0.000000 -7.125000 0.000000 0.000000 0.120406 15.384774 0.083843 0.000000 0.000000 0.000000 -1.004976 1.246599 -24.219915 -4.646574 -7.987195 -0.324584 -7.495028 62.905703 55.926480 0.000000 0.000000 0.000000 7.125000 0.000000 0.000000 79.185372 74.652683 -63.177076
9.816920 23.366767 14.951880 176.800157 1.472253 -149.018761 0.000000 0.000000 0.000000 -18.040020 -5.989682 -31.503598 9.843240 17.319628 58.961691 1.915547 17.903905 26.108874 6.679119 -15.055269 -47.649333 0.000000 0.000000 0.000000 18.013358 5.421265 -36.223657 -14.192098 -19.170832 72.789984 0.088412 -17.078905 11.125128 -0.554039 4.757992 -13.221489 -4.708275 -3.141013 -29.772500 -0.472411 -1.547097 -2.397614 1.541132 -0.555175 13.099464 -5.557391 -5.492270 3.440449 10.413724 -7.546971 6.314979 4.236463 -3.570554 2.039873 0.000000 0.000000 0.000000 7.195051 -2.624810 -35.044250 13.542467 -22.075798 2.654475 28.022437 -0.987567 12.718691 0.000000 0.000000 0.000000 -7.125000 0.000000 0.000000 0.504895 15.638348 0.349668 0.000000 0.000000 0.000000 -0.661245 2.488870 -24.302964 -4.604465 -7.915837 -0.318753 -8.289081 63.004807 55.998040 0.000000 0.000000 0.000000 7.125000 0.000000 0.000000 79.293217 74.947439 -63.619173
